<svg xmlns="http://www.w3.org/2000/svg" width="500" height="500" viewBox="0 0 500 500"><g fill-rule="evenodd"><path fill="#fff" d="M0 500h500V0H0Z"/><path d="M500 500H0V0h500zm-18-18H18V18h464z"/></g><path fill="#5b33c2" fill-rule="evenodd" d="M215.577 483c-150.672 0-150.672 0-153.133-2.655-1.353-1.46-4.201-5.411-6.33-8.78-2.127-3.37-5.569-9.488-7.647-13.596s-4.82-10.107-6.093-13.332-3.22-10.048-4.329-15.163-2.526-14.852-3.152-21.637c-.706-7.67-.888-19.715-.479-31.837.361-10.725 1.112-25.125 1.668-32s2.137-20.15 3.513-29.5c1.377-9.35 5.195-30.5 8.485-47s8.499-39.675 11.575-51.5 5.802-23.525 6.059-26c.424-4.087-.3-6.014-7.886-21-4.594-9.075-9.379-19.538-10.632-23.252s-3.108-10.013-4.121-14-2.159-10.44-2.545-14.342c-.401-4.058-.199-11.307.474-16.939.646-5.415 2.317-13.023 3.712-16.906 1.395-3.884 4.547-10.211 7.005-14.061 2.457-3.85 7.013-9.603 10.123-12.785 3.111-3.182 9.116-8.058 13.345-10.836 4.228-2.778 10.499-5.925 13.935-6.995 3.435-1.069 9.366-2.386 13.18-2.927 4.66-.661 9.699-.64 15.364.064 4.636.576 11.262 2.075 14.724 3.332s9.402 4.357 13.201 6.89 10.142 7.526 14.096 11.096c7.19 6.492 7.19 6.492 14.156 3.657 3.831-1.559 11.908-4.432 17.949-6.385 6.04-1.953 16.545-4.695 23.344-6.094 6.8-1.398 17.987-3.06 24.862-3.691 7.684-.707 20.976-.926 34.5-.569 17.28.456 25.003 1.124 36 3.114 7.7 1.393 20.3 4.402 28 6.688s15.453 4.38 17.229 4.655c2.786.431 5.01-.695 16.229-8.224 7.15-4.797 15.824-9.748 19.275-11 3.452-1.254 9.65-2.79 13.776-3.416 5.363-.813 9.635-.842 14.995-.102 4.123.57 9.99 1.953 13.037 3.075s7.76 3.718 10.474 5.77c2.714 2.05 7.066 6.375 9.671 9.609 2.606 3.234 5.693 7.913 6.861 10.398s2.82 7.725 3.67 11.645c1.166 5.373 1.42 10.684 1.033 21.579-.452 12.71-.875 15.477-3.505 22.952-1.645 4.675-5.118 12.922-7.718 18.328-3.485 7.244-4.612 10.66-4.287 13 .243 1.744 1.884 7.897 3.647 13.672 1.764 5.775 3.705 15 4.315 20.5.9 8.119.804 13.104-.515 26.5-.894 9.075-1.888 22.125-2.21 29-.321 6.875-1.039 16.775-1.594 22s-1.906 13.38-3 18.122-3.369 12.167-5.054 16.5-3.285 9.328-3.553 11.1c-.269 1.773.067 5.598.745 8.5s1.897 6.039 2.708 6.969c.855.981 3.777 1.978 6.964 2.376 3.46.433 6.443 1.506 8.066 2.902 1.69 1.454 2.355 2.791 1.934 3.888-.353.92-1.808 2.116-3.232 2.658s-4.577.985-7.003.985c-3.554 0-4.718.467-5.985 2.401-1.114 1.7-1.486 4.24-1.273 8.695.3 6.293.3 6.293 6.162 8.029 3.224.955 6.936 2.746 8.25 3.98 1.313 1.234 2.388 3.05 2.388 4.034 0 .985-.883 2.263-1.963 2.841-1.384.74-4.02.712-8.928-.1-3.83-.632-7.632-.893-8.448-.58s-3.196 3.861-5.29 7.884c-2.27 4.366-6.238 9.764-9.838 13.388-3.318 3.34-8.733 7.84-12.033 10-5.192 3.399-6.45 4.87-9.342 10.928-1.838 3.85-5.377 10.043-7.865 13.763s-7.563 9.578-11.279 13.017c-3.715 3.44-10.525 8.365-15.134 10.945-4.61 2.58-8.97 5.047-9.692 5.483-1.058.638-.804 3.12 1.306 12.792 1.44 6.6 2.874 13.237 3.187 14.75.569 2.75.569 2.75-150.104 2.75"/><path fill-rule="evenodd" d="M166.5 63.704c22.607-8.219 32.91-11.574 37.48-12.759 4.57-1.184 12.857-3.039 18.415-4.121 7.697-1.499 16.182-2.102 35.605-2.53 20.28-.449 28.263-.227 39 1.085 7.425.907 18.675 2.81 25 4.227s16.398 4.154 22.385 6.08 12.066 3.328 13.51 3.116c1.445-.212 5.228-2.307 8.407-4.656s8.575-6.021 11.99-8.161c3.414-2.14 9.159-5 12.765-6.356 3.607-1.357 10.132-3.005 14.5-3.663 6.57-.99 9.422-.939 16.503.3 4.708.822 11.064 2.68 14.124 4.128s7.658 4.475 10.217 6.728 6.638 6.877 9.064 10.277 5.451 9.313 6.723 13.141c2.044 6.153 2.312 8.886 2.312 23.575 0 15.402-.2 17.228-2.74 25-1.506 4.612-5.018 13.11-7.803 18.885-3.975 8.24-4.966 11.253-4.601 14 .255 1.925 2.08 9.049 4.054 15.831 2.496 8.57 3.773 15.28 4.188 22 .365 5.918.007 15.489-.923 24.669-.836 8.25-1.792 21.075-2.124 28.5s-1.062 17.325-1.622 22-1.949 12.55-3.086 17.5c-1.138 4.95-3.64 12.825-5.56 17.5-2.991 7.284-3.404 9.24-2.888 13.669.332 2.843 1.166 6.886 1.854 8.986 1.196 3.65 1.493 3.851 6.751 4.588 3.025.424 6.723 1.266 8.217 1.871 1.494.606 2.967 1.89 3.272 2.853.306.963.278 2.477-.063 3.365-.34.887-2.038 1.85-3.773 2.137-1.734.288-5.163.638-7.62.777-4.234.24-4.513.442-5.312 3.843-.464 1.975-.704 5.764-.532 8.422.283 4.396.582 4.913 3.311 5.726 1.65.49 4.931 1.583 7.292 2.426s5.037 2.673 5.95 4.065c1.59 2.429 1.56 2.609-.767 4.493-1.911 1.548-3.275 1.824-6.45 1.307A227 227 0 0 0 445 367.35c-4.5-.522-4.5-.522-8.45 7.314-2.583 5.125-6.043 9.934-10 13.9-3.327 3.335-8.873 7.972-12.324 10.303-5.786 3.91-6.614 4.954-10.662 13.436-2.539 5.32-6.865 12.142-10.262 16.181-3.23 3.842-8.542 9.136-11.805 11.764-3.263 2.63-9.208 6.461-13.21 8.516-6.941 3.563-7.278 3.898-7.276 7.236.002 1.925.933 7.325 2.07 12 1.138 4.675 2.318 9.962 2.624 11.75.557 3.25.557 3.25-7.38 3.25s-7.937 0-9.686-9.25c-.961-5.087-2.19-10.937-2.732-13-.984-3.75-.984-3.75-9.985-3.75-4.95 0-13.37-.464-18.711-1.032s-15.231-2.39-21.978-4.05-15.297-4.292-19-5.85c-3.703-1.56-11.683-5.081-17.733-7.827s-17.18-9.106-24.735-14.134c-10.44-6.947-13.896-9.78-14.404-11.804-.409-1.63-.112-3.657.766-5.22.79-1.406 2.667-2.99 4.172-3.52 2.205-.775 3.77-.456 8.047 1.642 2.92 1.432 10 5.394 15.732 8.804s14.016 8.011 18.409 10.225 12.042 5.597 17 7.516c4.957 1.919 12.542 4.55 16.856 5.845s11.718 2.87 16.454 3.501c4.935.657 12.127.86 16.848.478 4.53-.368 11.446-1.558 15.367-2.645s10.36-3.602 14.309-5.59c4.857-2.446 9.476-5.915 14.281-10.727 3.906-3.912 7.921-8.687 8.922-10.612s2.015-4.483 2.252-5.683c.368-1.86-.216-2.35-3.922-3.301-2.395-.615-6.154-1.811-8.354-2.658-2.2-.848-6.854-3.637-10.343-6.2-3.489-2.562-7.686-5.507-9.326-6.544-2.982-1.887-2.982-1.887-7.157 1.198-2.296 1.697-7.38 5.295-11.298 7.997-3.919 2.7-11.119 6.394-16 8.206-7.987 2.965-10.229 3.343-22.376 3.775-8.434.3-15.752.033-19.5-.714-3.3-.657-10.05-3.168-15-5.579-5.48-2.669-11.254-6.46-14.762-9.69-3.17-2.919-8.145-8.457-11.056-12.307-5.293-7-5.293-7-10.962-7.51-3.37-.303-6.342-1.184-7.33-2.172-.937-.936-1.39-2.374-1.039-3.291.344-.896 2.61-2.507 5.038-3.58 4.412-1.952 4.412-1.952 2.92-8.7-.821-3.71-2.239-8.309-3.15-10.218-1.524-3.188-2.183-3.564-8.069-4.608-4.117-.73-6.897-1.804-7.772-3-.75-1.025-1.1-2.552-.78-3.392.319-.841 1.006-1.959 1.526-2.484s3.08-1.202 5.69-1.504c4.746-.55 4.746-.55 4.481-5.546-.145-2.747-1.418-9.27-2.829-14.495-1.41-5.225-3.763-12.2-5.228-15.5s-4.66-8.475-7.1-11.5-7.187-8.492-10.551-12.15-7.347-8.425-8.85-10.595c-1.697-2.449-2.965-5.887-3.34-9.064-.508-4.28-.172-6.009 2.053-10.557 1.464-2.99 3.816-6.194 5.227-7.119 1.582-1.036 4.67-1.7 8.056-1.73 4.508-.04 6.202.466 9.474 2.833 2.191 1.585 11.173 10.082 19.96 18.882 12.316 12.334 16.654 17.375 18.935 22 1.833 3.717 3.166 8.283 3.504 12 .37 4.075-.087 8.888-1.426 15a5257 5257 0 0 0-4.095 18.901c-1.167 5.446-1.751 10.273-1.298 10.726s4.413 1.563 8.799 2.465c4.386.903 10.338 2.522 13.228 3.598s5.7 2.791 6.246 3.81.72 2.567.386 3.436c-.334.87-1.623 1.836-2.866 2.148s-6.48-.135-11.64-.993c-5.159-.858-10.618-1.78-12.13-2.05-2.543-.454-2.75-.243-2.75 2.806 0 1.813.718 5.404 1.596 7.98 1.125 3.303 2.26 4.85 3.852 5.25 1.24.31 6.558.25 11.816-.136s10.694-.417 12.081-.07c1.387.349 2.787 1.47 3.111 2.49.324 1.022.31 2.587-.033 3.479s-2.265 2.087-4.272 2.656c-2.008.57-6.351 1.311-9.651 1.649-3.3.337-6.4.977-6.888 1.421-.503.46-.033 2.158 1.088 3.929 1.086 1.715 4.176 4.938 6.866 7.161s7.151 5.19 9.913 6.594c2.761 1.403 7.19 3.126 9.84 3.828 2.651.703 7.602 1.57 11 1.925 4.108.43 8.865.11 14.181-.956 4.761-.954 11.67-3.394 17.066-6.027 5.994-2.925 11.002-6.284 14.778-9.913 3.39-3.256 6.708-7.664 8.161-10.838 2.036-4.446 2.286-5.934 1.48-8.81-.532-1.902-1.898-4.976-3.036-6.83-1.137-1.854-4.628-5.83-7.758-8.837-3.13-3.005-9.066-8.3-13.191-11.765s-10.047-8.975-13.16-12.244c-3.476-3.652-6.123-7.496-6.864-9.97-1.021-3.407-.95-4.566.462-7.54.946-1.995 3.185-4.327 5.178-5.394 2.771-1.483 5.426-1.85 12.602-1.74 5 .078 13.97.926 19.934 1.885 7.242 1.166 13.086 1.532 17.596 1.104 3.713-.353 12.602-1.208 19.752-1.902 12.907-1.25 12.999-1.278 12.844-3.743-.086-1.366-1.019-4.733-2.072-7.483s-3.727-7.925-5.942-11.5-7.294-11.225-11.288-17c-3.993-5.775-8.572-13.244-10.175-16.599-1.83-3.829-3.14-8.516-3.52-12.593-.336-3.595-.073-9.577.59-13.401.659-3.799 2.63-9.832 4.38-13.407 1.978-4.04 5.643-8.99 9.683-13.077 5.092-5.152 7.583-6.885 11.5-8 2.75-.783 8.167-1.423 12.038-1.423 4.086 0 9.538.785 13 1.871 3.279 1.03 7.2 2.749 8.714 3.82s3.211 2.806 3.773 3.856c.725 1.355.658 2.488-.232 3.914-.69 1.103-2.959 2.689-5.044 3.523S412.667 196 411.087 196c-1.697 0-3.121.647-3.48 1.582-.334.87-.607 4.59-.607 8.268 0 5.47-.451 7.35-2.48 10.336-1.364 2.007-3.742 4.548-5.284 5.646s-4.417 2.299-6.39 2.669c-2.67.501-4.65.13-7.753-1.454-2.293-1.17-5.389-3.891-6.88-6.049-1.492-2.157-3.03-3.94-3.418-3.96-.387-.02-1.008 1.578-1.378 3.553-.37 1.976-.41 5.822-.087 8.548s2.07 7.75 3.882 11.163 6.865 11.604 11.227 18.202 9.19 14.246 10.728 16.996 3.782 7.925 4.987 11.5c1.3 3.855 2.223 9.149 2.269 13.009.043 3.64-.698 8.98-1.682 12.117-1.322 4.214-3.434 7.458-8.5 13.055-3.708 4.097-11.644 12.348-17.637 18.336-6.972 6.967-11.606 12.495-12.87 15.35-1.458 3.297-1.826 5.708-1.409 9.23.31 2.621 1.486 6.572 2.611 8.778s3.66 5.58 5.633 7.495 5.689 4.515 8.259 5.777c3.621 1.778 6.358 2.291 12.172 2.282 5.977-.01 8.662-.549 13.22-2.652 3.147-1.452 7.832-4.808 10.412-7.458s5.561-6.78 6.624-9.175c1.065-2.402 1.55-4.739 1.079-5.21-.469-.468-3.218-1.359-6.108-1.979-2.891-.62-5.925-1.795-6.742-2.612S410 357.246 410 356.5s.707-2.064 1.571-2.929c1.118-1.117 3.517-1.571 8.3-1.571 3.9 0 7.233-.504 7.929-1.2.66-.66 1.2-3.285 1.2-5.833s-.253-4.887-.563-5.197-3.3.075-6.644.855-6.916 1.153-7.938.83c-1.021-.325-2.322-1.46-2.891-2.523-.693-1.295-.706-2.546-.037-3.795.548-1.024 2.251-2.341 3.785-2.926 1.533-.585 4.588-1.599 6.788-2.253s4.574-1.728 5.276-2.385c1.033-.97.998-2.514-.188-8.135-.805-3.816-3.128-12.338-5.162-18.938s-4.358-14.7-5.165-18c-.96-3.935-1.293-8.753-.965-14 .275-4.4 1.54-11.129 2.81-14.953s5.189-11.699 8.71-17.5c3.52-5.8 7.915-13.697 9.765-17.547s4.109-9.925 5.018-13.5c1.186-4.667 1.482-8.615 1.05-14-.331-4.125-1.747-11.73-3.147-16.902-1.4-5.17-3.911-12.265-5.581-15.764-1.682-3.524-5.395-8.778-8.319-11.774-3.727-3.817-6.285-5.57-8.692-5.956-1.875-.301-9.935-.685-17.91-.853-13.901-.293-14.727-.428-20-3.278-3.734-2.018-6.521-4.501-8.68-7.731-1.75-2.618-3.73-7.215-4.402-10.218-1.033-4.615-.966-6.493.43-12.15.908-3.681 2.803-9.208 4.21-12.281 2.558-5.589 2.558-5.589-.25-7.846-1.544-1.241-6.408-4.037-10.808-6.213s-12.26-5.593-17.466-7.593-10.94-3.876-12.741-4.168c-1.916-.311-3.902-.012-4.785.72-.956.794-1.508 2.986-1.508 5.99 0 3.468.705 5.777 2.631 8.615 1.447 2.132 5.088 6.583 8.09 9.89 3.003 3.306 6.528 7.823 7.833 10.037 1.304 2.213 3.115 6.926 4.024 10.473 1.17 4.564 1.462 8.31 1 12.812-.358 3.499-1.471 8.52-2.474 11.158-1.002 2.638-3.033 6.383-4.513 8.324s-4.316 4.299-6.304 5.242c-2.68 1.272-5.136 1.576-9.516 1.179-3.898-.354-7.16-1.366-9.6-2.981-2.032-1.345-5.29-4.423-7.239-6.839s-6.204-8.218-9.457-12.893c-3.252-4.675-8.177-10.755-10.944-13.51-2.767-2.756-9.449-8.123-14.848-11.927s-11.853-9.182-14.341-11.95c-2.49-2.768-5.772-7.526-7.296-10.573s-3.308-8.015-3.965-11.04a1262 1262 0 0 1-1.693-7.892c-.485-2.331-.681-2.376-7.693-1.746-3.957.356-11.088 1.516-15.846 2.577-4.758 1.062-10.496 2.427-12.75 3.034-3.412.92-4.099 1.523-4.099 3.605 0 1.376.867 4.2 1.926 6.277 1.06 2.077 5.08 7.248 8.936 11.493 6.069 6.681 7.169 8.482 8.192 13.414.65 3.133.955 8.543.675 12.02-.37 4.613-1.288 7.588-3.392 10.99-1.586 2.567-4.827 6.03-7.2 7.697-3.78 2.654-5.161 3.03-11.098 3.028-4.358-.002-8.077-.622-10.41-1.734-1.996-.952-3.629-2.369-3.629-3.149s1.417-1.912 3.15-2.516c1.731-.604 5.496-1.098 8.364-1.098 3.776 0 5.95-.577 7.871-2.088 1.46-1.149 3.321-3.377 4.135-4.95.867-1.678 1.461-5.47 1.435-9.162-.025-3.465-.587-7.51-1.25-8.987s-3.8-5.389-6.97-8.691c-3.364-3.505-6.99-8.63-8.708-12.313-1.619-3.47-3.3-6.907-3.737-7.638-.64-1.074-1.946-.907-6.791.865-3.3 1.207-6.806 2.962-7.792 3.9-1.478 1.406-1.606 2.2-.725 4.516.588 1.546 1.522 4.836 2.077 7.312.707 3.156.676 5.509-.105 7.876-.613 1.856-1.946 3.82-2.962 4.364s-2.557.716-3.426.383c-.868-.333-4.114-4.944-7.213-10.246s-7.693-12.075-10.208-15.05c-2.514-2.975-7.288-7.41-10.608-9.858-3.32-2.447-8.624-5.757-11.787-7.355-3.162-1.599-8.787-3.621-12.5-4.495-4.378-1.03-9.057-1.402-13.315-1.06-3.611.292-9.139 1.434-12.284 2.54-3.145 1.105-8.588 4.057-12.096 6.56-3.507 2.503-8.23 6.695-10.494 9.314-2.264 2.62-5.447 7.463-7.072 10.763s-3.686 8.897-4.578 12.439-1.622 10.066-1.621 14.5c0 4.442.916 12.166 2.038 17.204 1.12 5.029 3.675 13.129 5.678 18S71.98 157.875 74.22 162s5.377 9.413 6.974 11.75 3.311 4.25 3.81 4.25 3.58-3.512 6.847-7.803 9.403-11.038 13.635-14.99 11.918-10.003 17.08-13.446c6.201-4.137 9.794-7.24 10.588-9.147.91-2.184.933-4.173.094-8.172-.61-2.907-2.369-7.908-3.91-11.113-1.655-3.446-5.465-8.524-9.319-12.42-4.86-4.915-7.971-7.134-12.231-8.723-3.143-1.172-8.318-2.544-11.5-3.05s-8.037-.562-10.787-.124c-2.754.437-5.415.401-5.923-.082-.562-.533-.486-1.835.195-3.33.615-1.35 2.822-3.611 4.905-5.027 2.95-2.004 5.007-2.57 9.305-2.556 3.035.01 8.498.65 12.14 1.421 3.642.772 9.308 2.76 12.59 4.417 3.282 1.656 8.062 5.048 10.622 7.535s6.373 7.184 8.476 10.437c2.102 3.252 4.902 9.459 6.222 13.793 1.614 5.3 2.411 10.392 2.434 15.553.027 6.167-.362 8.204-1.981 10.376-1.108 1.486-5.274 4.558-9.257 6.827-3.983 2.268-10.095 6.238-13.583 8.822-3.487 2.585-9.504 8.435-13.37 13-3.865 4.566-8.924 11.227-11.243 14.802-2.318 3.575-6.61 11.45-9.537 17.5s-6.741 15.05-8.476 20-3.405 10.237-3.712 11.75c-.378 1.869-.143 2.75.735 2.75.71 0 6.46-3.442 12.777-7.648 8.852-5.896 15.91-11.948 30.793-26.41 12.19-11.845 22.365-20.792 27.598-24.266 4.56-3.028 11.088-6.443 14.508-7.59 3.906-1.31 8.779-2.086 13.103-2.086 5.495 0 7.548.454 10.18 2.25 1.812 1.237 4.129 3.818 5.147 5.734 1.278 2.404 1.852 5.587 1.852 10.261 0 4.827-.612 8.079-2.128 11.303-1.17 2.49-5.231 7.997-9.025 12.24-3.794 4.241-9.558 10.187-12.81 13.212-3.25 3.025-9.003 8.94-12.783 13.143s-9.939 12.529-13.687 18.5c-3.749 5.971-9.347 14.418-12.441 18.77-3.095 4.351-8.551 10.346-12.126 13.322s-10.1 7.123-14.5 9.217c-4.4 2.093-11.718 5.065-16.261 6.604-4.544 1.539-11.294 4.437-15 6.44-4.588 2.478-7.943 5.215-10.512 8.572-2.127 2.782-4.625 7.766-5.729 11.432-1.076 3.575-2.398 11.225-2.936 17-.539 5.775-1.288 16.302-1.664 23.394-.685 12.894-.685 12.894 1.953 12.39 1.451-.278 4.527-1.805 6.836-3.394 2.308-1.59 6.248-5.763 8.755-9.275s7.106-9.873 10.22-14.136c3.726-5.102 7.828-9.275 12-12.208 3.486-2.45 10.373-6.866 15.304-9.811s11.682-8.095 15-11.444c4.192-4.23 7.712-9.26 11.532-16.483 3.024-5.718 6.973-12.327 8.775-14.687s5.26-5.453 7.684-6.874c3.343-1.959 5.865-2.604 10.436-2.669 4.141-.058 6.852.455 8.66 1.64 1.45.95 3.495 3.67 4.546 6.048s2.175 7.177 2.496 10.666 1.204 8.911 1.963 12.05c.976 4.041 3.553 8.931 8.83 16.759 5.608 8.316 8.204 13.34 10.488 20.293 1.669 5.082 3.728 12.994 4.575 17.582.848 4.587 1.278 9.392.955 10.676-.322 1.285-1.435 3.104-2.473 4.044-1.336 1.209-2.886 1.546-5.305 1.154-1.879-.305-7.402-2.993-12.272-5.973s-12.323-7.573-16.56-10.206-9.603-5.135-11.925-5.56c-2.702-.494-6.042-.3-9.272.538-3.47.9-6.054 2.406-8.264 4.817-1.768 1.93-3.525 5.162-3.904 7.185-.382 2.035-.188 5.353.435 7.43.618 2.065 2.639 5.734 4.49 8.154 1.85 2.42 6.015 6.463 9.254 8.984 3.24 2.52 9.49 6.986 13.89 9.923s11.432 7.94 15.626 11.117c4.195 3.178 10.183 8.612 13.307 12.077s7.813 9.899 10.419 14.299 5.944 10.816 7.418 14.257c1.473 3.441 3.339 8.841 4.145 12s1.773 7.007 2.149 8.553c.683 2.81.683 2.81-4.16 2.5-4.844-.31-4.844-.31-6.936-7.86-1.151-4.153-3.534-10.63-5.295-14.394s-5.166-9.59-7.567-12.95c-2.4-3.358-6.782-8.606-9.735-11.662-2.954-3.056-8.746-8.046-12.871-11.09-4.125-3.043-12-8.616-17.5-12.384s-13.008-9.735-16.683-13.26-7.476-8.052-8.445-10.06c-.969-2.007-1.944-6.357-2.168-9.666s.12-7.974.765-10.368c.733-2.723 2.866-6.163 5.699-9.192 2.49-2.662 6.425-5.759 8.745-6.882 3.284-1.59 6.197-2.041 13.153-2.04 8.447.003 9.252.195 14.776 3.526 3.214 1.938 8.483 5.316 11.71 7.508 3.228 2.191 7.49 4.941 9.472 6.11 2.245 1.326 3.957 1.773 4.542 1.188s.156-3.934-1.139-8.886c-1.143-4.372-3.759-11.098-5.814-14.948-2.054-3.85-6.08-10.803-8.946-15.451-2.866-4.649-6.101-11.333-7.189-14.856s-1.98-8.494-1.984-11.048c-.003-2.555-.473-6.329-1.044-8.387-.75-2.698-1.725-3.914-3.495-4.359-1.35-.339-3.54-.343-4.867-.01s-4.14 2.58-6.25 4.993-6.088 8.588-8.838 13.72c-2.75 5.134-7.122 11.898-9.716 15.031s-7.319 7.692-10.5 10.128-9.515 6.575-14.075 9.196-10.764 7.026-13.787 9.788-8.287 9.125-11.699 14.139-8.457 11.394-11.213 14.179c-2.755 2.784-8.049 6.761-11.763 8.838-4.812 2.69-6.936 4.503-7.389 6.308-.35 1.394-.357 6.15-.016 10.571s1.124 10.601 1.74 13.734c.617 3.134 1.466 6.254 1.887 6.935.558.903 2.088.29 5.648-2.26 2.686-1.925 7.56-4.276 10.833-5.224 4.356-1.262 8.025-1.581 13.696-1.192 5.384.369 9.511 1.34 13.539 3.183 4.478 2.05 8.383 5.309 17.195 14.348 6.271 6.433 15.726 15.666 21.011 20.518s14.277 12.277 19.982 16.5l10.373 7.678-9.118.287c-9.118.288-9.118.288-21.873-11.352-7.015-6.401-18.326-17.464-25.135-24.583-6.809-7.12-14.12-13.832-16.247-14.917s-5.825-2.24-8.218-2.569c-2.789-.382-6.45.014-10.194 1.102-3.214.935-7.779 3.03-10.144 4.658-2.468 1.698-4.577 4.062-4.95 5.55-.417 1.658.1 4.37 1.435 7.528 1.147 2.715 5 9.292 8.56 14.616 3.562 5.324 8.677 12.042 11.367 14.93l4.892 5.25H75.336c-11.284 0-11.284 0-16.403-7.25-2.816-3.987-7.345-11.664-10.065-17.06s-6.25-13.72-7.843-18.5-3.628-12.74-4.522-17.69-1.883-16.65-2.198-26-.04-26 .613-37c.652-11 2.058-26.525 3.124-34.5 1.065-7.975 3.049-20.8 4.408-28.5s4.53-24.125 7.048-36.5 7.06-32.175 10.092-44 5.77-23.57 6.083-26.098c.522-4.213.062-5.554-5.484-16-3.33-6.271-8.082-16.369-10.56-22.44-2.477-6.07-5.545-15.07-6.817-20-1.794-6.955-2.31-11.649-2.302-20.962.006-7.946.59-14.365 1.73-19 .947-3.85 3.82-11.185 6.383-16.3 3.269-6.524 6.73-11.518 11.59-16.722 3.812-4.08 9.998-9.459 13.747-11.952s9.68-5.607 13.18-6.921c3.498-1.314 9.869-2.953 14.158-3.642 6.14-.986 9.614-.999 16.344-.057 4.7.657 11.359 2.216 14.796 3.464s9.356 4.345 13.155 6.883 10.057 7.503 13.907 11.033zm190.096 277.037c.603-.133 5.286-4.066 10.406-8.741s12.164-11.831 15.654-15.903c3.49-4.071 6.344-8.298 6.344-9.393 0-1.866-.457-1.95-7.25-1.333-3.987.362-10.969 1.39-15.514 2.283-7.689 1.512-8.836 1.507-16.5-.074-4.53-.935-13.524-1.964-19.986-2.287-10-.5-11.75-.366-11.75.901 0 .82 2.813 4.17 6.25 7.449 3.438 3.277 10.075 9.086 14.75 12.908s10.3 8.631 12.5 10.689 4.493 3.633 5.096 3.5M231.988 318c.512 0 1.85-2.972 2.971-6.603 1.122-3.632 2.788-10.693 3.702-15.691 1.663-9.088 1.663-9.088-1.733-15.638-2.654-5.118-6.81-9.94-19.012-22.06-8.59-8.53-16.857-16.174-18.373-16.985-2.626-1.405-2.876-1.337-5.26 1.434-2.087 2.426-2.42 3.638-2.007 7.3a14.7 14.7 0 0 0 3.36 7.794c1.575 1.87 6.923 7.595 11.883 12.722 5.973 6.171 10.25 11.669 12.664 16.273 2.005 3.825 4.552 9.879 5.661 13.454a521 521 0 0 1 3.614 12.25c.879 3.163 2.017 5.75 2.53 5.75m-168.76-15.368c1.8-.778 6.422-2.764 10.272-4.413s10.353-4.196 14.45-5.66c4.098-1.463 10.48-4.252 14.182-6.198 3.99-2.096 8.914-5.843 12.09-9.199 2.946-3.114 7.412-8.812 9.924-12.662 2.513-3.85 6.424-10.15 8.693-14s6.248-9.7 8.843-13c2.596-3.3 11.436-12.525 19.645-20.5s16.071-16.215 17.472-18.31c1.67-2.499 2.7-5.658 2.992-9.178.398-4.804.161-5.65-2.259-8.07-2.505-2.506-3.149-2.664-8.787-2.153-4.324.392-8.422 1.719-14.165 4.584-5.443 2.716-11.018 6.692-17.08 12.182-4.95 4.483-13.725 12.741-19.5 18.352s-13.425 12.581-17 15.49-12.35 8.964-19.5 13.457c-10.261 6.448-13.374 8.931-14.775 11.788-.977 1.991-2.884 8.51-4.24 14.489-1.354 5.978-3.162 15.557-4.017 21.286-.854 5.73-1.32 11.027-1.033 11.773.435 1.135 1.053 1.125 3.792-.058M432.407 284c.79 0 1.918-1.462 2.505-3.25.588-1.788 1.745-7.75 2.572-13.25s1.506-13.488 1.51-17.75c.002-4.438-.417-7.75-.982-7.75-.544 0-2.18 1.89-3.639 4.2-1.458 2.309-3.709 6.471-5.003 9.25-1.886 4.05-2.353 6.733-2.357 13.55-.005 6.72.408 9.18 1.975 11.75 1.09 1.788 2.628 3.25 3.419 3.25m-147.082-16c-1.28 0-3.164-.838-4.188-1.862-1.56-1.56-1.947-3.955-2.38-14.75-.413-10.289-1.067-14.602-3.24-21.388-1.498-4.675-4.475-11.875-6.616-16s-4.985-8.85-6.32-10.5c-1.828-2.259-2.544-2.63-2.898-1.5-.258.825-1.01 4.133-1.671 7.352-.874 4.252-2.162 6.914-4.715 9.74-2.146 2.376-5.014 4.293-7.37 4.927-3.035.818-4.652.705-7.605-.528-2.062-.862-4.602-2.338-5.643-3.28-1.041-.94-2.837-3.511-3.991-5.711-1.527-2.91-2.11-5.895-2.144-10.955-.045-6.955-.045-6.955-4.045-7.771-2.2-.45-5.463-1.292-7.25-1.873-2.084-.677-3.46-1.893-3.835-3.386-.322-1.28-.099-3.237.495-4.347s3.67-3.27 6.835-4.802c5.079-2.456 7.153-2.83 17.657-3.184 8.092-.273 13.166.015 15.85.901 2.17.717 6.715 3.227 10.097 5.578 3.398 2.361 8.278 7.087 10.904 10.557 2.614 3.455 6.53 9.882 8.705 14.282 2.173 4.4 5.079 11.924 6.456 16.72s3.022 12.62 3.657 17.388.953 11.085.708 14.038c-.317 3.834-1.115 6.082-2.786 7.862-1.288 1.37-3.388 2.492-4.667 2.492m-19.992-114.546c-1.559.24-4.237.015-5.951-.502-1.715-.517-5.012-2.995-7.327-5.507-2.314-2.511-4.892-6.2-5.727-8.199-.834-1.998-1.758-5.113-2.051-6.923s.033-4.66.726-6.332c.693-1.674 2.594-3.993 4.224-5.153 1.77-1.26 4.5-2.11 6.78-2.11 2.122 0 5.312.925 7.19 2.085 1.904 1.177 4.977 4.795 7.052 8.302 2.022 3.419 3.969 8.161 4.325 10.538s.372 5.422.034 6.768c-.337 1.345-1.925 3.38-3.527 4.52-1.603 1.142-4.19 2.272-5.748 2.513m60.281-9.458c1.163.002 3.249-.888 4.634-1.977 1.385-1.09 3.246-3.8 4.135-6.02 1.005-2.512 1.612-6.963 1.606-11.77-.007-6.03-.533-8.854-2.392-12.846-1.31-2.815-5.469-8.384-9.24-12.377s-7.884-8.696-9.139-10.452c-1.895-2.651-2.382-4.957-2.877-13.623-.328-5.737-.897-10.766-1.263-11.174-.366-.41-5.03-1.4-10.365-2.2s-16.393-1.768-24.573-2.149c-8.18-.38-16.058-.395-17.507-.031-2.174.546-2.634 1.233-2.634 3.932 0 1.799.695 5.938 1.544 9.198.941 3.613 3.087 7.971 5.496 11.162 2.255 2.987 9.562 9.59 17.018 15.376 9.09 7.055 14.797 12.366 18.754 17.453a5429 5429 0 0 1 11.942 15.424c3.44 4.461 7.714 9.002 9.5 10.091s4.198 1.981 5.361 1.983m-64.373-3.838c.478-.478.578-2.026.223-3.44-.354-1.414-1.515-3.358-2.579-4.32-1.416-1.282-2.23-1.454-3.042-.642-.61.61-.796 1.927-.414 2.927s1.652 2.835 2.82 4.08c1.201 1.28 2.5 1.886 2.992 1.395m176.258-9.519c.55-.158 1.961-2.279 3.136-4.713s3.2-7.799 4.5-11.921c1.98-6.277 2.364-9.61 2.364-20.5 0-12.325-.156-13.345-2.99-19.505-1.646-3.575-4.544-8.224-6.44-10.332-1.898-2.107-6.09-5.164-9.316-6.792-3.779-1.908-8.072-3.16-12.06-3.52-4.051-.365-8.581.003-13.094 1.063-3.794.892-9.649 2.934-13.01 4.538-3.36 1.604-7.905 4.486-10.1 6.406-3.97 3.471-3.98 3.499-1.99 5.377 1.1 1.039 5.495 4.463 9.766 7.61 4.27 3.147 10.864 8.388 14.652 11.648s10.563 10.331 15.056 15.714c4.494 5.384 10.5 13.259 13.348 17.501s5.628 7.584 6.178 7.426m-44.3-.643c4.236.002 10.086-.494 13-1.103 2.915-.609 5.71-1.49 6.21-1.96.535-.501-.127-2.418-1.609-4.657-1.384-2.092-4.853-6.36-7.707-9.482-2.854-3.123-7.91-8.036-11.236-10.917s-7.005-5.27-8.177-5.308c-1.557-.05-2.863 1.275-4.859 4.931-1.501 2.75-3.02 7.308-3.376 10.13-.504 4.002-.2 6.138 1.386 9.723 1.253 2.833 3.304 5.37 5.35 6.617 2.57 1.567 5.054 2.023 11.019 2.026"/><path fill="#eeb716" fill-rule="evenodd" d="M116.785 483c-30.232 0-30.232 0-36.186-6.25-3.275-3.437-8.184-9.625-10.909-13.75-2.724-4.125-6.252-10.32-7.84-13.766-2.695-5.855-2.787-6.455-1.398-9.141.818-1.581 3.341-4.239 5.608-5.906s6.38-3.573 9.141-4.235 7.19-.947 9.841-.633c2.652.314 6.638 1.497 8.858 2.63s8.201 6.445 13.29 11.805c5.09 5.36 12.641 13.041 16.782 17.069 4.14 4.028 10.507 9.878 14.148 13s7.133 6.465 7.759 7.427c1.075 1.653-.535 1.75-29.094 1.75M85 179.5c-3.116-3.875-6.302-8.941-9.09-13.758s-6.6-12.29-8.47-16.607c-1.871-4.316-4.524-12.04-5.895-17.163s-2.786-12.554-3.145-16.51c-.383-4.225-.16-10.015.538-14.026.654-3.757 2.505-10.23 4.112-14.383 1.608-4.154 4.898-10.06 7.31-13.123 2.413-3.064 7.147-7.645 10.52-10.18 3.374-2.537 8.718-5.582 11.877-6.769s8.906-2.4 12.772-2.697 10.293.011 14.282.684 9.826 2.51 12.97 4.081c3.146 1.572 8.722 5.336 12.393 8.364 3.67 3.028 9.123 8.561 12.115 12.296s7.475 10.391 9.96 14.791 5.718 11.667 7.183 16.148c1.466 4.482 4.342 10.557 6.392 13.5 2.587 3.715 5.403 6.257 9.202 8.312 4.132 2.234 6.829 2.97 11 3 3.43.025 7.187-.708 9.904-1.931 2.547-1.147 5.58-3.63 7.25-5.937 1.58-2.18 3.59-6.434 4.468-9.453 1.022-3.517 1.401-7.375 1.054-10.739-.298-2.887-1.436-7.196-2.528-9.575s-4.954-7.7-8.583-11.825-7.342-9.438-8.252-11.807c-1.421-3.7-1.456-4.499-.247-5.672.775-.751 3.883-2.044 6.908-2.873s7.975-2.009 11-2.622c3.025-.612 8.826-1.577 12.891-2.143 5.876-.818 7.65-.757 8.649.294.69.728 1.739 3.646 2.329 6.485.59 2.838 1.908 7.363 2.93 10.053s3.691 7.589 5.93 10.886 6.028 7.572 8.42 9.5c2.393 1.93 8.202 6.263 12.908 9.632s10.34 8.07 12.518 10.446 7.703 9.642 12.277 16.146c5.956 8.47 9.606 12.644 12.862 14.709 2.5 1.585 6.432 3.165 8.737 3.51 2.305.347 5.975.15 8.155-.438 2.18-.587 5.388-2.539 7.128-4.337s4.114-5.42 5.276-8.05 2.373-7.894 2.691-11.698c.334-3.978.056-9.58-.655-13.193-.68-3.453-2.045-7.865-3.035-9.803s-5.04-7.125-9.001-11.525-8.13-9.876-9.265-12.168c-1.702-3.437-1.904-4.91-1.154-8.396.5-2.325 1.65-4.693 2.557-5.262 1.219-.766 3.86-.314 10.164 1.736 4.685 1.524 13.844 5.354 20.353 8.51 6.51 3.157 13.103 6.831 14.652 8.166 2.818 2.427 2.818 2.427-.435 10.42-2.78 6.83-3.262 9.267-3.318 16.729-.054 7.439.303 9.428 2.406 13.403 1.359 2.568 4.255 5.961 6.436 7.542s6.418 3.585 9.415 4.456c4.275 1.243 7.685 1.432 15.826.877 7.092-.483 12.007-.316 15.53.53 3.81.913 6.272 2.353 9.437 5.518 2.355 2.355 5.886 7.468 7.847 11.362 1.96 3.893 4.787 11.241 6.28 16.328 2.286 7.786 2.717 11.148 2.723 21.249.008 11.57-.119 12.287-3.528 20-1.944 4.4-7.02 13.85-11.281 21-4.28 7.182-8.733 16.133-9.95 20-1.678 5.325-2.18 9.273-2.102 16.5.09 8.462.618 11.084 4.83 24 2.6 7.975 5.426 17.96 6.278 22.19.852 4.229 1.289 8.368.97 9.197-.318.83-2.514 2.003-4.88 2.607s-5.573 1.598-7.128 2.206c-1.556.609-3.556 2.217-4.445 3.575-1.515 2.312-1.495 2.56.328 3.929 1.426 1.072 3.397 1.297 7.402.845 3.002-.338 6.47-.87 7.707-1.18 1.764-.442 2.374-.058 2.832 1.784.322 1.29.21 4.147-.247 6.347-.832 4-.832 4-7.291 4.259-3.552.142-7.484.7-8.737 1.24-1.253.541-2.566 1.733-2.917 2.648-.407 1.061.158 2.31 1.56 3.444 1.208.98 4.703 2.3 7.765 2.936 4.916 1.02 5.518 1.409 5.141 3.314-.234 1.188-1.134 3.509-1.998 5.159s-3.37 5.04-5.567 7.534-6.388 5.836-9.312 7.427c-4.175 2.272-6.968 2.99-12.999 3.339-6.625.383-8.424.105-13.084-2.029-2.971-1.36-6.98-3.86-8.91-5.553s-4.702-5.274-6.162-7.956-2.946-6.702-3.303-8.934c-.48-3.006-.113-5.269 1.415-8.724 1.454-3.286 6.877-9.544 18.356-21.18 8.961-9.085 17.601-18.795 19.2-21.578 2.27-3.952 3.011-6.683 3.383-12.472.269-4.194-.082-10.039-.809-13.463-.706-3.33-2.916-9.3-4.91-13.269-1.993-3.969-6.586-11.474-10.205-16.679-3.62-5.205-8.771-13.246-11.45-17.87-4.275-7.382-4.915-9.24-5.254-15.236-.212-3.755-.088-8.017.277-9.47.661-2.636.676-2.628 5.862 2.91 3.904 4.17 6.144 5.725 8.992 6.247 2.609.478 5.187.162 8.258-1.01 3.443-1.315 5.084-2.762 7.17-6.321 2.056-3.507 2.834-6.424 3.242-12.143.537-7.526.537-7.526 6.985-9.208 3.546-.926 7.055-2.51 7.798-3.522.742-1.012 1.119-2.74.837-3.84s-1.464-2.776-2.626-3.724c-1.162-.947-4.655-2.522-7.761-3.5-3.804-1.196-8.846-1.776-15.438-1.776-8.858 0-10.315.275-15.316 2.895-3.04 1.592-7.23 4.829-9.31 7.192s-5.221 7.418-6.979 11.232-3.946 10.39-4.863 14.615c-1.413 6.511-1.48 8.583-.441 13.612.674 3.263 2.504 8.75 4.067 12.193 1.563 3.444 7.23 12.749 12.594 20.678s11.108 17.317 12.767 20.86c1.658 3.544 3.061 8.08 3.119 10.083.104 3.64.104 3.64-8.396 3.846-4.675.113-12.579.932-17.564 1.82-8.703 1.551-9.634 1.53-23.352-.548-9.416-1.426-17.486-2.047-23.668-1.821-8.98.328-9.515.477-12.518 3.482-2.512 2.513-3.126 3.943-3.081 7.176.03 2.221.783 5.445 1.672 7.164s3.494 4.948 5.789 7.175 7.764 7.041 12.152 10.698c4.39 3.656 10.654 9.12 13.923 12.142 3.268 3.022 7.039 7.152 8.38 9.179 1.34 2.026 2.675 5.45 2.964 7.608.36 2.674-.095 5.33-1.425 8.336-1.19 2.692-4.62 6.857-8.796 10.684-3.839 3.517-9.948 7.805-13.91 9.762-3.887 1.92-9.541 4.143-12.566 4.942-3.025.798-8.65 1.727-12.5 2.064-4.728.414-9.434.099-14.5-.97-4.125-.872-10.31-2.964-13.743-4.65-3.736-1.836-8.885-5.67-12.82-9.548-3.618-3.564-6.397-7.021-6.177-7.682.225-.675 4.28-1.755 9.255-2.466 4.87-.696 9.932-1.97 11.248-2.833 1.6-1.048 2.182-2.125 1.756-3.244-.35-.922-1.085-2.126-1.633-2.676-.589-.592-5.747-.867-12.63-.675-6.398.178-12.587-.11-13.754-.642-1.266-.577-2.636-2.688-3.401-5.24-.704-2.35-1.535-5.845-1.847-7.766-.567-3.492-.567-3.492 4.262-2.83 2.656.364 8.369 1.38 12.696 2.256 4.327.877 8.924 1.329 10.217 1.004s2.61-1.269 2.93-2.098c.318-.83.333-2.15.032-2.932-.3-.782-2.052-2.137-3.893-3.01-1.84-.874-8.384-2.768-14.54-4.21-11.194-2.62-11.194-2.62-10.61-6.738.32-2.265 1.995-10.869 3.722-19.119 2.482-11.861 3.03-16.509 2.615-22.21-.4-5.485-1.268-8.594-3.632-13-1.71-3.184-6.133-8.993-9.83-12.909-3.698-3.915-11.448-11.524-17.223-16.908s-12.435-10.649-14.8-11.7c-2.978-1.323-5.282-1.699-7.5-1.221-1.76.379-4.4 1.302-5.868 2.052-1.588.81-3.767 3.607-5.379 6.902-2.007 4.102-2.58 6.508-2.205 9.267.277 2.05 1.17 5.302 1.981 7.227.813 1.925 5.414 7.775 10.225 13 4.81 5.225 10.718 12.425 13.126 16s5.752 10.264 7.43 14.865c1.68 4.6 3.984 12.597 5.121 17.77 1.138 5.171 1.813 10.07 1.5 10.884-.393 1.025-2.055 1.481-5.4 1.481-2.657 0-5.371.54-6.031 1.2s-1.2 2-1.2 2.977 1.012 2.427 2.25 3.222 4.41 1.76 7.05 2.144 5.389 1.289 6.11 2.01c.72.72 2.296 5.24 3.5 10.043 1.782 7.103 1.948 8.935.89 9.818-.715.597-2.647 1.776-4.293 2.62s-3.131 2.252-3.3 3.129.423 2.324 1.314 3.216c1.067 1.066 3.348 1.621 6.666 1.621 4.257 0 5.415.429 7.429 2.75 1.312 1.513 4.497 5.627 7.078 9.144 2.58 3.517 7.32 8.329 10.531 10.693s8.187 5.406 11.057 6.76c2.87 1.353 7.693 3.292 10.718 4.307 4.346 1.459 8.559 1.846 20.077 1.846 12.597 0 15.584-.323 22-2.377 4.083-1.307 10.419-3.879 14.08-5.715 3.661-1.837 9.47-5.68 12.91-8.543 3.438-2.862 7.207-5.386 8.375-5.61 1.413-.27 4.122 1.155 8.091 4.253 3.282 2.562 7.767 5.72 9.967 7.016s7.15 3.23 11 4.295c6.323 1.75 6.974 2.166 6.733 4.31-.146 1.304-2.354 5.44-4.905 9.193-2.551 3.751-7.156 8.881-10.233 11.4-3.077 2.518-9.195 6.29-13.595 8.381s-10.925 4.387-14.5 5.1-11.693 1.297-18.04 1.297c-8.414 0-14.371-.63-22-2.326-5.753-1.28-15.635-4.369-21.96-6.864s-15.325-6.603-20-9.127a810 810 0 0 1-17-9.506c-4.675-2.703-11.13-6.303-14.344-7.998-5.447-2.874-6.024-2.983-8.476-1.607-1.447.813-3.29 2.652-4.096 4.087-1.31 2.333-1.283 2.888.244 5.218.94 1.434 6.987 6.166 13.44 10.515s14.043 10.315 16.867 13.257 7.802 8.988 11.062 13.434 7.915 12.095 10.344 17c2.43 4.904 4.59 10.38 4.798 12.167.38 3.25.38 3.25-31.691 3.25s-32.07 0-33.17-4.25c-.606-2.337-2.187-7.85-3.515-12.25s-4.502-11.677-7.053-16.17-7.078-11.244-10.059-15-8.217-9.218-11.635-12.138c-3.419-2.919-10.941-8.514-16.716-12.434s-13.723-9.492-17.662-12.384c-3.94-2.892-8.643-7.41-10.453-10.04-2.527-3.675-3.373-6.063-3.648-10.308-.266-4.088.142-6.437 1.567-9.026 1.256-2.283 3.797-4.489 7.31-6.345 4.576-2.417 6.183-2.766 10.686-2.317 3.347.333 7.401 1.71 11 3.736 3.135 1.765 8.317 4.982 11.515 7.149s8.382 5.469 11.518 7.337 7.11 3.679 8.83 4.023c2.439.487 3.622.132 5.367-1.613 2.01-2.01 2.178-2.91 1.656-8.854-.32-3.639-1.486-10.1-2.591-14.358s-3.071-10.333-4.369-13.5-5.36-10.31-9.029-15.873c-4.58-6.946-7.115-11.958-8.093-16-.784-3.237-1.68-8.662-1.99-12.056-.312-3.394-1.32-8.054-2.242-10.356-.998-2.494-2.927-4.95-4.773-6.076-1.965-1.198-4.929-1.883-8.099-1.871-2.75.01-6.817.843-9.039 1.852s-5.833 3.874-8.027 6.366c-2.194 2.493-6.226 8.673-8.961 13.735s-7.298 12.03-10.139 15.484c-3.1 3.768-8.148 8.231-12.622 11.158A859 859 0 0 1 95.995 340c-3.994 2.475-9.225 6.447-11.625 8.826s-7.17 8.455-10.6 13.5c-3.43 5.046-8.568 11.479-11.417 14.296s-6.59 5.613-8.312 6.214c-2.593.904-3.235.823-3.73-.47-.33-.857-.293-7.929.082-15.713s1.124-18.203 1.665-23.153 1.65-11.324 2.465-14.164c.816-2.84 3.227-7.37 5.36-10.069 2.132-2.697 6.085-6.321 8.784-8.053s11.64-5.652 19.87-8.71c8.23-3.06 17.362-7.012 20.294-8.783 2.932-1.772 7.975-5.861 11.207-9.088s8.293-9.527 11.247-14l11.968-18.133c4.074-6.174 10.11-13.443 15.776-19 5.047-4.95 13.454-13.7 18.68-19.443 5.228-5.743 10.447-12.383 11.6-14.755 1.568-3.228 2.107-6.305 2.143-12.227.04-6.48-.326-8.415-2.014-10.682-1.134-1.523-3.238-3.648-4.675-4.72-1.438-1.074-4.785-2.158-7.439-2.41-2.795-.266-7.557.25-11.324 1.224-3.575.926-9.497 3.254-13.16 5.175s-9.616 6.044-13.23 9.164c-3.612 3.12-12.99 11.92-20.84 19.554-7.848 7.634-18.848 17.31-24.443 21.5s-12.214 8.726-14.71 10.077c-2.495 1.351-4.851 2.142-5.236 1.758-.385-.385 1.17-6.486 3.455-13.558s6.546-17.566 9.47-23.32 7.514-13.81 10.2-17.9 9.871-12.387 15.969-18.437c8.847-8.778 13.04-12.094 20.753-16.416 7.405-4.149 9.967-6.138 10.95-8.5.707-1.696 1.208-5.952 1.113-9.457s-1.138-9.58-2.32-13.5-3.518-9.377-5.191-12.127-4.796-7.102-6.938-9.67c-2.142-2.569-6.245-6.217-9.118-8.108s-7.853-4.411-11.066-5.6-9.064-2.414-13-2.72c-6.202-.483-7.758-.247-11.65 1.77-2.47 1.28-5.52 3.875-6.776 5.765s-2.984 5.84-3.838 8.778c-.913 3.143-1.576 9.43-1.61 15.275-.033 5.463.495 12.763 1.172 16.222.678 3.458 2.152 8.988 3.277 12.288s3.165 8.25 4.535 11 4.285 7.57 6.479 10.711c3.988 5.712 3.988 5.712 1.4 10-1.423 2.36-3.5 5.414-4.617 6.789zm200.295 88.485c.988.008 2.864-1.053 4.17-2.36 1.447-1.446 2.642-4.154 3.058-6.93.376-2.506.172-8.399-.453-13.096-.625-4.696-2.002-11.924-3.06-16.061s-3.035-10.273-4.393-13.635-4.638-9.7-7.29-14.086c-2.65-4.385-6.668-9.902-8.928-12.26s-7.208-5.811-10.997-7.673c-6.718-3.3-7.203-3.384-19.422-3.382-12.141.003-12.74.105-19.2 3.285-3.77 1.856-6.933 4.12-7.28 5.21-.336 1.06-.128 2.83.462 3.931.59 1.102 2.752 2.442 4.805 2.977 2.053.536 5.083 1.114 6.733 1.284 2.99.31 3 .335 3.259 7.311.142 3.85.97 8.92 1.839 11.267.928 2.506 3.032 5.374 5.097 6.95 2.743 2.091 4.664 2.692 8.736 2.732 4.175.04 5.927-.488 8.754-2.643 1.943-1.481 4.293-4.294 5.221-6.25.929-1.956 1.957-5.823 2.285-8.592.357-3.014 1.04-4.89 1.702-4.674.61.198 2.77 2.73 4.802 5.627s5.097 8.634 6.81 12.75 3.988 10.896 5.055 15.068c1.235 4.83 1.94 10.954 1.94 16.86 0 5.101.478 10.532 1.063 12.07.584 1.537 1.596 3.134 2.25 3.55s1.995.761 2.982.77M263.127 153c2.185 0 5.237-.654 6.782-1.453s3.38-2.831 4.078-4.516c.722-1.743 1.014-4.637.677-6.712-.325-2.006-1.83-6.096-3.345-9.09s-4.311-6.726-6.216-8.295c-1.904-1.57-4.73-3.133-6.282-3.473-1.552-.341-4.067-.346-5.59-.012-1.524.335-4.044 1.624-5.6 2.864-2.126 1.696-2.951 3.365-3.324 6.721-.41 3.697.082 5.578 2.856 10.92 2.158 4.156 4.89 7.629 7.672 9.75 3.21 2.45 5.34 3.296 8.292 3.296m174.349-22c-.65 0-3.205-3.038-5.676-6.75s-7.19-10.125-10.484-14.25c-3.295-4.125-10.479-11.775-15.965-17s-14.097-12.425-19.135-16c-5.208-3.695-9.172-7.221-9.188-8.172-.016-.963 2.596-3.386 6.168-5.72 3.407-2.226 9.595-5.299 13.75-6.828 5.95-2.19 9.274-2.78 15.657-2.78 4.457 0 9.857.624 12 1.386 2.144.763 6.204 2.908 9.025 4.766 2.82 1.86 6.351 5.23 7.847 7.489 1.495 2.26 3.58 6.612 4.632 9.67 1.053 3.06 2.19 8.537 2.528 12.172.35 3.774.078 9.79-.636 14.022-.687 4.076-2.09 9.905-3.115 12.953-1.027 3.048-2.847 7.68-4.046 10.292s-2.712 4.75-3.362 4.75"/></svg>